<mxfile host="app.diagrams.net" modified="2020-11-06T13:17:51.030Z" agent="5.0 (Windows NT 10.0; Win64; x64) AppleWebKit/537.36 (KHTML, like Gecko) Chrome/86.0.4240.111 Safari/537.36" etag="6KyC8fFLrFZEwIKUTatq" version="13.9.1" type="github">
  <diagram id="X_Q50odmZpth2JMuDkEg" name="Page-1">
    <mxGraphModel dx="1038" dy="1717" grid="1" gridSize="10" guides="1" tooltips="1" connect="1" arrows="1" fold="1" page="1" pageScale="1" pageWidth="827" pageHeight="1169" math="0" shadow="0">
      <root>
        <mxCell id="0" />
        <mxCell id="1" parent="0" />
        <mxCell id="X53Lztg_E4oeJ3vxmzHu-43" style="edgeStyle=orthogonalEdgeStyle;rounded=0;orthogonalLoop=1;jettySize=auto;html=1;" parent="1" source="X53Lztg_E4oeJ3vxmzHu-20" edge="1">
          <mxGeometry relative="1" as="geometry">
            <mxPoint x="260" y="105" as="targetPoint" />
          </mxGeometry>
        </mxCell>
        <mxCell id="X53Lztg_E4oeJ3vxmzHu-20" value="&lt;b&gt;&lt;font face=&quot;helvetica&quot;&gt;First&lt;/font&gt;&lt;br style=&quot;color: rgb(0 , 0 , 0) ; font-family: &amp;#34;helvetica&amp;#34; ; font-size: 12px ; font-style: normal ; letter-spacing: normal ; text-align: center ; text-indent: 0px ; text-transform: none ; word-spacing: 0px ; background-color: rgb(248 , 249 , 250)&quot;&gt;&lt;span style=&quot;color: rgb(0 , 0 , 0) ; font-family: &amp;#34;helvetica&amp;#34; ; font-size: 12px ; font-style: normal ; letter-spacing: normal ; text-align: center ; text-indent: 0px ; text-transform: none ; word-spacing: 0px ; background-color: rgb(248 , 249 , 250) ; display: inline ; float: none&quot;&gt;Producer&lt;/span&gt;&lt;/b&gt;" style="whiteSpace=wrap;html=1;aspect=fixed;" parent="1" vertex="1">
          <mxGeometry x="40" y="70" width="70" height="70" as="geometry" />
        </mxCell>
        <mxCell id="X53Lztg_E4oeJ3vxmzHu-21" value="&lt;b&gt;Second&lt;br&gt;Producer&lt;/b&gt;" style="whiteSpace=wrap;html=1;aspect=fixed;" parent="1" vertex="1">
          <mxGeometry x="40" y="220" width="80" height="80" as="geometry" />
        </mxCell>
        <mxCell id="X53Lztg_E4oeJ3vxmzHu-24" value="" style="ellipse;whiteSpace=wrap;html=1;" parent="1" vertex="1">
          <mxGeometry x="260" y="-10" width="350" height="370" as="geometry" />
        </mxCell>
        <mxCell id="X53Lztg_E4oeJ3vxmzHu-25" value="&lt;b&gt;Broker 1&lt;/b&gt;" style="whiteSpace=wrap;html=1;shape=mxgraph.basic.cloud_rect;align=left;" parent="1" vertex="1">
          <mxGeometry x="310" y="36" width="120" height="120" as="geometry" />
        </mxCell>
        <mxCell id="X53Lztg_E4oeJ3vxmzHu-26" value="&lt;b&gt;Broker 2&lt;/b&gt;" style="whiteSpace=wrap;html=1;shape=mxgraph.basic.cloud_rect;align=left;" parent="1" vertex="1">
          <mxGeometry x="310" y="174" width="120" height="127.5" as="geometry" />
        </mxCell>
        <mxCell id="X53Lztg_E4oeJ3vxmzHu-83" style="edgeStyle=orthogonalEdgeStyle;rounded=0;orthogonalLoop=1;jettySize=auto;html=1;" parent="1" source="X53Lztg_E4oeJ3vxmzHu-27" target="X53Lztg_E4oeJ3vxmzHu-77" edge="1">
          <mxGeometry relative="1" as="geometry" />
        </mxCell>
        <mxCell id="X53Lztg_E4oeJ3vxmzHu-27" value="Partition&lt;br&gt;1" style="ellipse;whiteSpace=wrap;html=1;aspect=fixed;" parent="1" vertex="1">
          <mxGeometry x="371.5" y="255" width="45" height="45" as="geometry" />
        </mxCell>
        <mxCell id="X53Lztg_E4oeJ3vxmzHu-79" style="edgeStyle=orthogonalEdgeStyle;rounded=0;orthogonalLoop=1;jettySize=auto;html=1;exitX=1;exitY=0.5;exitDx=0;exitDy=0;" parent="1" source="X53Lztg_E4oeJ3vxmzHu-28" target="X53Lztg_E4oeJ3vxmzHu-78" edge="1">
          <mxGeometry relative="1" as="geometry">
            <Array as="points">
              <mxPoint x="412" y="90" />
              <mxPoint x="533" y="90" />
            </Array>
          </mxGeometry>
        </mxCell>
        <mxCell id="X53Lztg_E4oeJ3vxmzHu-28" value="Partition&lt;br&gt;0" style="ellipse;whiteSpace=wrap;html=1;aspect=fixed;" parent="1" vertex="1">
          <mxGeometry x="367.5" y="60.00000000000001" width="44" height="44" as="geometry" />
        </mxCell>
        <mxCell id="X53Lztg_E4oeJ3vxmzHu-81" style="edgeStyle=orthogonalEdgeStyle;rounded=0;orthogonalLoop=1;jettySize=auto;html=1;" parent="1" source="X53Lztg_E4oeJ3vxmzHu-29" edge="1">
          <mxGeometry relative="1" as="geometry">
            <mxPoint x="530" y="118" as="targetPoint" />
          </mxGeometry>
        </mxCell>
        <mxCell id="X53Lztg_E4oeJ3vxmzHu-29" value="Partition&amp;nbsp;&lt;br&gt;1" style="ellipse;whiteSpace=wrap;html=1;aspect=fixed;" parent="1" vertex="1">
          <mxGeometry x="367" y="106" width="44" height="44" as="geometry" />
        </mxCell>
        <mxCell id="X53Lztg_E4oeJ3vxmzHu-82" style="edgeStyle=orthogonalEdgeStyle;rounded=0;orthogonalLoop=1;jettySize=auto;html=1;" parent="1" source="X53Lztg_E4oeJ3vxmzHu-30" target="X53Lztg_E4oeJ3vxmzHu-77" edge="1">
          <mxGeometry relative="1" as="geometry" />
        </mxCell>
        <mxCell id="X53Lztg_E4oeJ3vxmzHu-30" value="Partition&lt;br&gt;0" style="ellipse;whiteSpace=wrap;html=1;aspect=fixed;" parent="1" vertex="1">
          <mxGeometry x="374" y="210" width="40" height="40" as="geometry" />
        </mxCell>
        <mxCell id="X53Lztg_E4oeJ3vxmzHu-39" value="" style="endArrow=classic;html=1;" parent="1" edge="1">
          <mxGeometry width="50" height="50" relative="1" as="geometry">
            <mxPoint x="120" y="90" as="sourcePoint" />
            <mxPoint x="260" y="90" as="targetPoint" />
          </mxGeometry>
        </mxCell>
        <mxCell id="X53Lztg_E4oeJ3vxmzHu-41" value="" style="endArrow=classic;html=1;" parent="1" edge="1">
          <mxGeometry width="50" height="50" relative="1" as="geometry">
            <mxPoint x="120" y="120" as="sourcePoint" />
            <mxPoint x="260" y="120" as="targetPoint" />
            <Array as="points">
              <mxPoint x="160" y="120" />
              <mxPoint x="190" y="120" />
            </Array>
          </mxGeometry>
        </mxCell>
        <mxCell id="X53Lztg_E4oeJ3vxmzHu-47" value="" style="endArrow=classic;html=1;" parent="1" edge="1">
          <mxGeometry width="50" height="50" relative="1" as="geometry">
            <mxPoint x="120" y="234.5" as="sourcePoint" />
            <mxPoint x="260" y="234.5" as="targetPoint" />
            <Array as="points">
              <mxPoint x="160" y="234.5" />
            </Array>
          </mxGeometry>
        </mxCell>
        <mxCell id="X53Lztg_E4oeJ3vxmzHu-48" value="" style="endArrow=classic;html=1;" parent="1" edge="1">
          <mxGeometry width="50" height="50" relative="1" as="geometry">
            <mxPoint x="130" y="252" as="sourcePoint" />
            <mxPoint x="270" y="252" as="targetPoint" />
            <Array as="points">
              <mxPoint x="170" y="252" />
              <mxPoint x="200" y="252" />
            </Array>
          </mxGeometry>
        </mxCell>
        <mxCell id="X53Lztg_E4oeJ3vxmzHu-49" value="" style="endArrow=classic;html=1;" parent="1" edge="1">
          <mxGeometry width="50" height="50" relative="1" as="geometry">
            <mxPoint x="120" y="270" as="sourcePoint" />
            <mxPoint x="260" y="270" as="targetPoint" />
            <Array as="points">
              <mxPoint x="160" y="270" />
              <mxPoint x="170" y="270.5" />
              <mxPoint x="190" y="270" />
            </Array>
          </mxGeometry>
        </mxCell>
        <mxCell id="X53Lztg_E4oeJ3vxmzHu-64" value="First Producer&lt;br&gt;sends data into Broker 1 (Partitions 0&amp;amp;1)" style="whiteSpace=wrap;html=1;shape=mxgraph.basic.roundRectCallout;dx=30;dy=15;size=5;boundedLbl=1;" parent="1" vertex="1">
          <mxGeometry x="120" width="100" height="80" as="geometry" />
        </mxCell>
        <mxCell id="X53Lztg_E4oeJ3vxmzHu-65" value="&lt;span style=&quot;color: rgb(0 , 0 , 0) ; font-family: &amp;#34;helvetica&amp;#34; ; font-size: 12px ; font-style: normal ; font-weight: 400 ; letter-spacing: normal ; text-indent: 0px ; text-transform: none ; word-spacing: 0px ; background-color: rgb(248 , 249 , 250) ; display: inline ; float: none&quot;&gt;Second Producer&lt;/span&gt;&lt;br style=&quot;color: rgb(0 , 0 , 0) ; font-family: &amp;#34;helvetica&amp;#34; ; font-size: 12px ; font-style: normal ; font-weight: 400 ; letter-spacing: normal ; text-indent: 0px ; text-transform: none ; word-spacing: 0px ; background-color: rgb(248 , 249 , 250)&quot;&gt;&lt;span style=&quot;color: rgb(0 , 0 , 0) ; font-family: &amp;#34;helvetica&amp;#34; ; font-size: 12px ; font-style: normal ; font-weight: 400 ; letter-spacing: normal ; text-indent: 0px ; text-transform: none ; word-spacing: 0px ; background-color: rgb(248 , 249 , 250) ; display: inline ; float: none&quot;&gt;sends data into Broker 2 (Partitions 0&amp;amp;1)&lt;/span&gt;" style="whiteSpace=wrap;html=1;shape=mxgraph.basic.roundRectCallout;dx=30;dy=15;size=5;boundedLbl=1;direction=east;" parent="1" vertex="1">
          <mxGeometry x="130" y="150" width="100" height="80" as="geometry" />
        </mxCell>
        <mxCell id="X53Lztg_E4oeJ3vxmzHu-76" value="&lt;div style=&quot;text-align: left&quot;&gt;&lt;br&gt;&lt;/div&gt;&lt;div style=&quot;text-align: left&quot;&gt;&lt;br&gt;&lt;/div&gt;" style="whiteSpace=wrap;html=1;aspect=fixed;" parent="1" vertex="1">
          <mxGeometry x="470" y="120" width="120" height="120" as="geometry" />
        </mxCell>
        <mxCell id="X53Lztg_E4oeJ3vxmzHu-77" value="Consumer&lt;br&gt;1" style="ellipse;whiteSpace=wrap;html=1;aspect=fixed;" parent="1" vertex="1">
          <mxGeometry x="473" y="183" width="54" height="54" as="geometry" />
        </mxCell>
        <mxCell id="X53Lztg_E4oeJ3vxmzHu-78" value="Consumer&lt;br&gt;0" style="ellipse;whiteSpace=wrap;html=1;aspect=fixed;" parent="1" vertex="1">
          <mxGeometry x="510" y="123.13" width="54" height="54" as="geometry" />
        </mxCell>
        <mxCell id="X53Lztg_E4oeJ3vxmzHu-88" value="Trump Topic" style="text;html=1;strokeColor=none;fillColor=none;align=center;verticalAlign=middle;whiteSpace=wrap;rounded=0;" parent="1" vertex="1">
          <mxGeometry x="348" y="180" width="82" height="20" as="geometry" />
        </mxCell>
        <mxCell id="X53Lztg_E4oeJ3vxmzHu-89" value="Baiden Topic" style="text;html=1;strokeColor=none;fillColor=none;align=center;verticalAlign=middle;whiteSpace=wrap;rounded=0;" parent="1" vertex="1">
          <mxGeometry x="338" y="40" width="82" height="20" as="geometry" />
        </mxCell>
        <mxCell id="eUZKk4hGMfm04uZvICXP-9" style="edgeStyle=orthogonalEdgeStyle;rounded=0;orthogonalLoop=1;jettySize=auto;html=1;" parent="1" source="X53Lztg_E4oeJ3vxmzHu-90" target="eUZKk4hGMfm04uZvICXP-4" edge="1">
          <mxGeometry relative="1" as="geometry" />
        </mxCell>
        <mxCell id="X53Lztg_E4oeJ3vxmzHu-90" value="" style="shape=singleArrow;whiteSpace=wrap;html=1;" parent="1" vertex="1">
          <mxGeometry x="570" y="145" width="100" height="60" as="geometry" />
        </mxCell>
        <mxCell id="X53Lztg_E4oeJ3vxmzHu-95" value="&lt;b&gt;Kafka Cluster 1&lt;/b&gt;" style="text;html=1;strokeColor=none;fillColor=none;align=center;verticalAlign=middle;whiteSpace=wrap;rounded=0;" parent="1" vertex="1">
          <mxGeometry x="420" y="30" width="159" height="40" as="geometry" />
        </mxCell>
        <mxCell id="0n7xJp_ahOCJjkOmX9ON-1" value="&lt;b&gt;Consumer Group&lt;/b&gt;" style="text;html=1;strokeColor=none;fillColor=none;align=center;verticalAlign=middle;whiteSpace=wrap;rounded=0;" parent="1" vertex="1">
          <mxGeometry x="527" y="166" width="60" height="66.87" as="geometry" />
        </mxCell>
        <mxCell id="eUZKk4hGMfm04uZvICXP-1" value="" style="ellipse;whiteSpace=wrap;html=1;align=center;dashed=1;" parent="1" vertex="1">
          <mxGeometry x="710" y="-95" width="410" height="550" as="geometry" />
        </mxCell>
        <mxCell id="eUZKk4hGMfm04uZvICXP-2" value="&lt;b&gt;&lt;font style=&quot;font-size: 16px&quot;&gt;ELK Stack : ElastickSearch,Logstash and Kibana&lt;/font&gt;&lt;/b&gt;" style="text;html=1;strokeColor=none;fillColor=none;align=center;verticalAlign=middle;whiteSpace=wrap;rounded=0;" parent="1" vertex="1">
          <mxGeometry x="820" y="-43" width="170" height="80" as="geometry" />
        </mxCell>
        <mxCell id="eUZKk4hGMfm04uZvICXP-3" style="edgeStyle=orthogonalEdgeStyle;rounded=0;orthogonalLoop=1;jettySize=auto;html=1;" parent="1" source="eUZKk4hGMfm04uZvICXP-4" target="eUZKk4hGMfm04uZvICXP-6" edge="1">
          <mxGeometry relative="1" as="geometry" />
        </mxCell>
        <mxCell id="eUZKk4hGMfm04uZvICXP-4" value="&lt;b&gt;Logstash: Collect and Tranform Data from Kafka Cluster 1&lt;/b&gt;" style="rounded=1;arcSize=10;whiteSpace=wrap;html=1;align=center;" parent="1" vertex="1">
          <mxGeometry x="710" y="150" width="140" height="40" as="geometry" />
        </mxCell>
        <mxCell id="eUZKk4hGMfm04uZvICXP-5" style="edgeStyle=orthogonalEdgeStyle;rounded=0;orthogonalLoop=1;jettySize=auto;html=1;" parent="1" source="eUZKk4hGMfm04uZvICXP-6" target="eUZKk4hGMfm04uZvICXP-7" edge="1">
          <mxGeometry relative="1" as="geometry" />
        </mxCell>
        <mxCell id="eUZKk4hGMfm04uZvICXP-6" value="&lt;b&gt;ElasticSearch: Search and Analyze&lt;/b&gt;" style="rounded=1;arcSize=10;whiteSpace=wrap;html=1;align=center;" parent="1" vertex="1">
          <mxGeometry x="980" y="146.25" width="110" height="47.5" as="geometry" />
        </mxCell>
        <mxCell id="eUZKk4hGMfm04uZvICXP-7" value="" style="pointerEvents=1;shadow=0;dashed=0;html=1;strokeColor=none;fillColor=#505050;labelPosition=center;verticalLabelPosition=bottom;verticalAlign=top;outlineConnect=0;align=center;shape=mxgraph.office.devices.tv;" parent="1" vertex="1">
          <mxGeometry x="830" y="237" width="170" height="150" as="geometry" />
        </mxCell>
        <mxCell id="eUZKk4hGMfm04uZvICXP-8" value="&lt;b&gt;Kibana: Visualize and Manage data&lt;/b&gt;" style="text;html=1;strokeColor=none;fillColor=none;align=center;verticalAlign=middle;whiteSpace=wrap;rounded=0;" parent="1" vertex="1">
          <mxGeometry x="831" y="272" width="159" height="45" as="geometry" />
        </mxCell>
      </root>
    </mxGraphModel>
  </diagram>
</mxfile>
